<svg width="64" height="64" viewBox="0 0 64 64" fill="none" xmlns="http://www.w3.org/2000/svg">
  <!-- Shield background -->
  <path d="M32 4L8 14V28C8 42 18 54 32 60C46 54 56 42 56 28V14L32 4Z" fill="#0ea5e9" opacity="0.2"/>
  <path d="M32 4L8 14V28C8 42 18 54 32 60C46 54 56 42 56 28V14L32 4Z" stroke="#0ea5e9" stroke-width="2" stroke-linejoin="round"/>
  
  <!-- Lock icon -->
  <rect x="24" y="28" width="16" height="14" rx="2" fill="#0ea5e9"/>
  <path d="M26 28V24C26 20.686 28.686 18 32 18C35.314 18 38 20.686 38 24V28" stroke="#0ea5e9" stroke-width="2.5" stroke-linecap="round"/>
  
  <!-- Lock dot -->
  <circle cx="32" cy="35" r="2" fill="white"/>
</svg>

